<mxfile host="app.diagrams.net" modified="2023-01-19T04:55:02.197Z" agent="5.0 (X11; Linux x86_64) AppleWebKit/537.36 (KHTML, like Gecko) Chrome/109.0.0.0 Safari/537.36" version="20.8.5" etag="dw3VxaxjPGO-u2YRBFTj" type="github">
  <diagram id="n0Mv955XDSek--Qb7BlB" name="Page-1">
    <mxGraphModel dx="441" dy="-152" grid="0" gridSize="10" guides="1" tooltips="1" connect="1" arrows="1" fold="1" page="0" pageScale="1" pageWidth="850" pageHeight="1100" math="0" shadow="0">
      <root>
        <mxCell id="0" />
        <mxCell id="1" parent="0" />
        <mxCell id="NOhbcxIJIRhHSHx9jda8-5" value="" style="edgeStyle=orthogonalEdgeStyle;rounded=0;orthogonalLoop=1;jettySize=auto;html=1;" edge="1" parent="1" source="NOhbcxIJIRhHSHx9jda8-1" target="NOhbcxIJIRhHSHx9jda8-4">
          <mxGeometry relative="1" as="geometry" />
        </mxCell>
        <mxCell id="NOhbcxIJIRhHSHx9jda8-1" value="test&lt;br&gt;" style="rounded=0;whiteSpace=wrap;html=1;" vertex="1" parent="1">
          <mxGeometry x="380" y="500" width="82" height="60" as="geometry" />
        </mxCell>
        <mxCell id="NOhbcxIJIRhHSHx9jda8-4" value="" style="shape=document;whiteSpace=wrap;html=1;boundedLbl=1;rounded=0;" vertex="1" parent="1">
          <mxGeometry x="509" y="464" width="87" height="46" as="geometry" />
        </mxCell>
      </root>
    </mxGraphModel>
  </diagram>
</mxfile>
